<svg xmlns="http://www.w3.org/2000/svg" width="156" height="156" viewBox="0 0 156 156">
  <g id="Group_81" data-name="Group 81" transform="translate(-249.008 -958.008)">
    <g id="Group_82" data-name="Group 82">
      <rect id="Rectangle_1471" data-name="Rectangle 1471" width="156" height="156" transform="translate(249.008 958.008)" fill="#2cffff"/>
      <g id="_090---Photo-Editing" data-name="090---Photo-Editing" transform="translate(278.889 989.867)">
        <g id="logo-design" transform="translate(7 5.432)">
          <path id="Path_373" data-name="Path 373" d="M77.57.078V26.2l-2.5-1.251V.078h-2.5V25.1l-1.251.938L70.063,25.1V.078h-2.5V24.953l-2.5,1.251V.078h-2.5V28.591l8.758,13.866,8.758-13.866V.078ZM71.314,37.771l-2.471-3.912h4.942Zm4.051-6.414h-8.1L65.6,28.729l3.083-1.538,2.628,1.976,2.628-1.976,3.083,1.538Zm0,0" transform="translate(12.166 -0.078)" stroke="#707070" stroke-width="0.156"/>
          <path id="Path_374" data-name="Path 374" d="M35.306,27.6,30.927,45.119H49.145L44.766,27.6ZM34.132,42.617,37.26,30.105h5.553l3.128,12.511Zm0,0" transform="translate(6.083 4.881)" stroke="#707070" stroke-width="0.156"/>
          <path id="Path_375" data-name="Path 375" d="M56.974,18.4V8.638h5.844V5.785H56.974V.078H54.053V5.785H39.444V.078H36.522V5.785H30.679V8.638h5.844V18.4L32.183,31.466h-20.5V25.759H8.765v5.707H0v2.853H8.765V48.586H0V51.44H8.765v5.707h2.922V51.44H25.549L16.07,79.974h-7.3v2.853h6.361L12.9,89.52l2.776.882L18.2,82.828H27.28l-1.972,6.741,2.81.784,2.2-7.526h7.663V79.974H31.155l5.008-17.121H57.334l5.008,17.121H55.514v2.853h7.663l2.2,7.526,2.81-.784-1.972-6.741H75.3L77.814,90.4l2.776-.882-2.219-6.693h6.361V79.974h-7.3ZM39.444,8.638H54.053V17.2H39.444ZM11.687,48.586V34.319H31.235L26.5,48.586ZM28.115,79.974h-8.97l2.37-7.134H30.2Zm34.344-9.987L59.537,60H33.96l-2.922,9.987H22.462L39.045,20.052H54.451L71.034,69.987Zm2.922,9.987-2.087-7.134h8.688l2.378,7.134Zm0,0" transform="translate(0 -0.078)" stroke="#707070" stroke-width="0.156"/>
        </g>
        <path id="Shape" d="M14.338,18.676A5.338,5.338,0,1,0,9,13.338,5.338,5.338,0,0,0,14.338,18.676Zm0-8.007a2.669,2.669,0,1,1-2.669,2.669A2.669,2.669,0,0,1,14.338,10.669Z" transform="translate(3.011 2.676)" stroke="#000" stroke-width="1"/>
        <path id="Shape-2" data-name="Shape" d="M13.335,8a1.335,1.335,0,0,0,1.335-1.335V5.335a1.335,1.335,0,0,0-2.669,0V6.669A1.335,1.335,0,0,0,13.335,8Z" transform="translate(4.014 1.338)" stroke="#000" stroke-width="1"/>
        <path id="Shape-3" data-name="Shape" d="M19.335,13.669h1.335a1.335,1.335,0,1,0,0-2.669H19.335a1.335,1.335,0,0,0,0,2.669Z" transform="translate(8.784 3.68)" stroke="#000" stroke-width="1"/>
        <path id="Shape-4" data-name="Shape" d="M13.335,17A1.335,1.335,0,0,0,12,18.335v1.335a1.335,1.335,0,1,0,2.669,0V18.335A1.335,1.335,0,0,0,13.335,17Z" transform="translate(4.014 8.248)" stroke="#000" stroke-width="1"/>
        <path id="Shape-5" data-name="Shape" d="M6.335,13.669H7.669a1.335,1.335,0,1,0,0-2.669H6.335a1.335,1.335,0,1,0,0,2.669Z" transform="translate(1.673 3.68)" stroke="#000" stroke-width="1"/>
      </g>
    </g>
  </g>
</svg>
